<?xml version="1.0" encoding="UTF-8" standalone="no"?>
<!-- Generator: Adobe Illustrator 26.5.0, SVG Export Plug-In . SVG Version: 6.00 Build 0)  -->

<svg
   version="1.1"
   id="Layer_1"
   x="0px"
   y="0px"
   viewBox="0 0 522.7 522.7"
   style="enable-background:new 0 0 522.7 522.7;"
   xml:space="preserve"
   sodipodi:docname="solanablack.svg"
   inkscape:version="1.3 (0e150ed6c4, 2023-07-21)"
   xmlns:inkscape="http://www.inkscape.org/namespaces/inkscape"
   xmlns:sodipodi="http://sodipodi.sourceforge.net/DTD/sodipodi-0.dtd"
   xmlns:xlink="http://www.w3.org/1999/xlink"
   xmlns="http://www.w3.org/2000/svg"
   xmlns:svg="http://www.w3.org/2000/svg"><defs
   id="defs4"><linearGradient
     id="linearGradient12"
     x1="29.7843"
     y1="53.1623"
     x2="29.7843"
     y2="11.8379"
     gradientUnits="userSpaceOnUse"><stop
       stop-color="#EC4280"
       id="stop8" /><stop
       stop-color="#EC4280"
       id="stop13"
       style="stop-color:#e73f85;stop-opacity:1;"
       offset="0.075" /><stop
       offset="0.15"
       stop-color="#E23D8A"
       id="stop9" /><stop
       offset="0.4"
       stop-color="#C930A6"
       id="stop10" /><stop
       offset="0.73"
       stop-color="#9F1BD4"
       id="stop11" /><stop
       offset="1"
       stop-color="#7908FF"
       id="stop12" /></linearGradient><linearGradient
     id="paint0_linear_5372_1197"
     x1="29.7843"
     y1="53.1623"
     x2="29.7843"
     y2="11.8379"
     gradientUnits="userSpaceOnUse"><stop
       stop-color="#EC4280"
       id="stop32" /><stop
       offset="0.15"
       stop-color="#E23D8A"
       id="stop33" /><stop
       offset="0.4"
       stop-color="#C930A6"
       id="stop34" /><stop
       offset="0.73"
       stop-color="#9F1BD4"
       id="stop35" /><stop
       offset="1"
       stop-color="#7908FF"
       id="stop36" /></linearGradient><mask
     id="mask0_5372_1197"
     maskUnits="userSpaceOnUse"
     x="40"
     y="24"
     width="11"
     height="13"><path
       d="m 47.5071,24.5457 c -3.645,-0.227 -8.987,5.7467 -7.0503,9.5451 1.2023,2.357 5.8898,2.9888 7.8684,1.3733 2.8574,-2.3305 2.8878,-9.1819 -0.8181,-10.9184 3.7059,1.7365 -3.645,-0.227 0,0 z"
       fill="#ffffff"
       id="path4" /></mask><linearGradient
     id="paint1_linear_5372_1197"
     x1="29.7841"
     y1="53.162102"
     x2="29.7841"
     y2="11.8376"
     gradientUnits="userSpaceOnUse"><stop
       stop-color="#EC4280"
       id="stop37" /><stop
       offset="0.15"
       stop-color="#E23D8A"
       id="stop38" /><stop
       offset="0.4"
       stop-color="#C930A6"
       id="stop39" /><stop
       offset="0.73"
       stop-color="#9F1BD4"
       id="stop40" /><stop
       offset="1"
       stop-color="#7908FF"
       id="stop41" /></linearGradient><mask
     id="mask1_5372_1197"
     maskUnits="userSpaceOnUse"
     x="11"
     y="28"
     width="11"
     height="12"><path
       d="m 17.4338,29.619 c -3.6831,0.3594 -6.4607,1.8538 -6.297,5.9549 0.1255,3.0871 2.0431,4.4339 5.0832,4.0102 3.645,-0.5107 4.7408,-5.3571 4.8169,-8.5009 0.0153,-0.6432 0.1484,-3.4882 -3.6031,-1.4642 3.7515,-2.024 -3.6831,0.3594 0,0 z"
       fill="#ffffff"
       id="path7" /></mask><mask
     id="mask2_5372_1197"
     maskUnits="userSpaceOnUse"
     x="40"
     y="24"
     width="11"
     height="13"><path
       d="m 47.5071,24.5457 c -3.645,-0.227 -8.987,5.7467 -7.0503,9.5451 1.2023,2.357 5.8898,2.9888 7.8684,1.3733 2.8574,-2.3305 2.8878,-9.1819 -0.8181,-10.9184 3.7059,1.7365 -3.645,-0.227 0,0 z"
       fill="#ffffff"
       id="path20" /></mask><mask
     id="mask3_5372_1197"
     maskUnits="userSpaceOnUse"
     x="11"
     y="28"
     width="11"
     height="12"><path
       d="m 17.4338,29.619 c -3.6831,0.3594 -6.4607,1.8538 -6.297,5.9549 0.1255,3.0871 2.0431,4.4339 5.0832,4.0102 3.645,-0.5107 4.7408,-5.3571 4.8169,-8.5009 0.0153,-0.6432 0.1484,-3.4882 -3.6031,-1.4642 3.7515,-2.024 -3.6831,0.3594 0,0 z"
       fill="#ffffff"
       id="path23" /></mask><linearGradient
     inkscape:collect="always"
     xlink:href="#paint0_linear_5372_1197"
     id="linearGradient8"
     x1="0"
     y1="261.30002"
     x2="522.70001"
     y2="261.30002"
     gradientUnits="userSpaceOnUse"
     gradientTransform="rotate(75.187264,261.3084,261.33413)" /></defs><sodipodi:namedview
   id="namedview4"
   pagecolor="#ffffff"
   bordercolor="#000000"
   borderopacity="0.25"
   inkscape:showpageshadow="2"
   inkscape:pageopacity="0.0"
   inkscape:pagecheckerboard="0"
   inkscape:deskcolor="#d1d1d1"
   inkscape:zoom="0.12327358"
   inkscape:cx="-924.77233"
   inkscape:cy="498.89034"
   inkscape:window-width="1604"
   inkscape:window-height="947"
   inkscape:window-x="478"
   inkscape:window-y="190"
   inkscape:window-maximized="0"
   inkscape:current-layer="Layer_1" />&#10;<style
   type="text/css"
   id="style1">&#10;	.st0{fill:#FFFFFF;}&#10;</style>&#10;<path
   d="m 513.95536,194.51315 v 0 C 550.8472,334.01756 467.67337,477.13823 328.16895,514.03006 v 0 C 188.66454,550.9219 45.640543,467.7225 8.7487085,328.21809 v 0 C -28.265365,188.64257 54.934027,45.618574 194.43844,8.7267391 v 0 C 334.03953,-28.19066 477.06353,55.008732 513.95536,194.51315 Z"
   id="path1"
   style="fill:url(#linearGradient8)" />&#10;&#10;&#10;&#10;<path
   d="m 261.31199,425.02686 c -1.87801,0 -3.75602,-0.55247 -5.36559,-1.63828 -2.64402,-1.77225 -4.21532,-4.72549 -4.21532,-7.88823 V 282.6041 c 0,-3.88695 2.37609,-7.39266 5.99764,-8.84108 l 140.45712,-56.16895 c 2.95122,-1.18099 6.30434,-0.81939 8.94885,0.95286 2.64402,1.77174 4.21532,4.74411 4.21532,7.90686 l -0.3062,132.87761 c 0,3.88695 -2.37609,7.37353 -5.99764,8.82194 l -140.15091,56.18809 c -1.14977,0.45679 -2.37609,0.68543 -3.58327,0.68543 z m 9.5809,-135.98294 v 112.33789 l 121.00775,-48.50936 0.24929,-112.3384 -121.25704,48.49073 z"
   fill="#181823"
   id="path17"
   style="stroke-width:5.03622;fill:#ffffff" /><path
   d="m 120.93101,305.79186 c -1.8779,0 -3.75576,-0.55247 -5.36538,-1.63828 -2.64432,-1.77225 -4.21562,-4.72548 -4.21562,-7.88823 V 163.3686 c 0,-3.88695 2.37609,-7.39266 5.99768,-8.84058 L 257.80527,98.35897 c 2.95072,-1.18129 6.30383,-0.81929 8.94835,0.95265 2.64452,1.77195 4.21582,4.74427 4.21582,7.90712 l -0.30671,132.87766 c 0,3.88696 -2.37608,7.37353 -5.99763,8.82144 l -140.15082,56.18809 c -1.14972,0.45729 -2.37608,0.68593 -3.58327,0.68593 z m 9.58096,-135.98294 v 112.33789 l 121.0081,-48.50986 0.24879,-112.33785 z"
   fill="#181823"
   id="path18"
   style="stroke-width:5.03622;fill:#ffffff" /><path
   d="m 191.1217,365.41012 c -1.878,0 -3.75601,-0.55248 -5.36559,-1.63879 -2.64451,-1.77174 -4.21581,-4.72498 -4.21581,-7.88772 V 222.98686 c 0,-3.88696 2.37608,-7.39267 5.99763,-8.84058 l 140.45762,-56.16895 c 2.95072,-1.1815 6.30434,-0.81939 8.94836,0.95235 2.64451,1.77224 4.21581,4.74462 4.21581,7.90737 l -0.3067,132.87761 c 0,3.88645 -2.37609,7.37352 -5.99763,8.82144 l -140.15042,56.18808 c -1.14977,0.45729 -2.37609,0.68594 -3.58327,0.68594 z m 9.5809,-135.98295 v 112.3379 L 321.71035,293.2552 321.95964,180.91731 200.7026,229.40803 Z"
   fill="url(#paint3_linear_5372_1197)"
   id="path19"
   style="fill:#ffa1fb;stroke-width:5.03622;fill-opacity:1" /><g
   mask="url(#mask2_5372_1197)"
   id="g22"
   transform="matrix(5.0362188,0,0,5.0362188,111.35001,97.67314)"
   style="fill:#ffffff"><path
     d="m 29.7766,64.9999 c -0.3729,0 -0.7458,-0.1097 -1.0654,-0.3253 -0.5251,-0.3519 -0.8371,-0.9383 -0.8371,-1.5663 V 36.7202 c 0,-0.7718 0.4718,-1.4679 1.191,-1.7555 l 27.8894,-11.153 c 0.5859,-0.2345 1.2518,-0.1627 1.7769,0.1892 0.525,0.3518 0.837,0.942 0.837,1.57 l -0.0609,26.3844 c 0,0.7718 -0.4718,1.4641 -1.1909,1.7517 L 30.4881,64.8638 c -0.2283,0.0907 -0.4718,0.1361 -0.7115,0.1361 z m 1.9024,-27.001 v 22.306 L 55.7065,50.6728 55.756,28.3667 31.679,37.9951 Z"
     fill="#181823"
     id="path22"
     style="fill:#ffffff" /></g><g
   mask="url(#mask3_5372_1197)"
   id="g25"
   transform="matrix(5.0362188,0,0,5.0362188,111.35001,97.67314)"><path
     d="m 15.8396,53.1623 c -0.3729,0 -0.7458,-0.1097 -1.0654,-0.3254 -0.5251,-0.3518 -0.8371,-0.9382 -0.8371,-1.5662 V 24.8825 c 0,-0.7718 0.4718,-1.4679 1.1909,-1.7554 l 27.8895,-11.153 c 0.5859,-0.2346 1.2518,-0.1627 1.7768,0.1891 0.5251,0.3519 0.8371,0.9421 0.8371,1.5701 l -0.0609,26.3844 c 0,0.7717 -0.4718,1.4641 -1.1909,1.7516 L 16.5511,53.0261 c -0.2283,0.0908 -0.4718,0.1362 -0.7115,0.1362 z m 1.9024,-27.001 v 22.306 l 24.0275,-9.6322 0.0495,-22.306 -24.077,9.6284 z"
     fill="url(#paint5_linear_5372_1197)"
     id="path24"
     style="fill:#ffa1fb;stroke-width:0.99995655;stroke-dasharray:none;fill-opacity:1" /><path
     d="m 1.90242,41.3244 c -0.37288,0 -0.74575,-0.1097 -1.065356,-0.3253 C 0.311996,40.6472 0,40.0608 0,39.4328 V 13.0446 C 0,12.2728 0.4718,11.5767 1.19091,11.2892 L 29.0804,0.136178 c 0.5859,-0.2345612 1.2517,-0.1626794 1.7768,0.189163 0.5251,0.351842 0.8371,0.942029 0.8371,1.570049 L 31.6334,28.2798 c 0,0.7718 -0.4718,1.4641 -1.1909,1.7516 L 2.61392,41.1882 c -0.22829,0.0908 -0.4718,0.1362 -0.7115,0.1362 z m 1.90241,-27.001 v 22.306 L 27.8324,26.9972 27.8818,4.69121 Z"
     fill="#181823"
     id="path25"
     style="fill:#f9f9f9" /></g></svg>
