<?xml version="1.0" encoding="utf-8"?>
<!-- Generator: Adobe Illustrator 23.0.0, SVG Export Plug-In . SVG Version: 6.00 Build 0)  -->
<svg version="1.1" id="Layer_1" xmlns="http://www.w3.org/2000/svg" xmlns:xlink="http://www.w3.org/1999/xlink" x="0px" y="0px"
	 viewBox="0 0 446 439" style="enable-background:new 0 0 446 439;" xml:space="preserve">
<style type="text/css">
	.st0{fill:#FFFFFF;}
</style>
<g id="Layer_3">
	<g>
		<path class="st0" d="M445.7,141.5c-23.6-23.6-47.1-47.1-70.7-70.7c23.6-23.6,47.1-47.1,70.7-70.7
			C445.7,47.2,445.7,94.3,445.7,141.5z"/>
	</g>
	<g>
		<polygon class="st0" points="293.7,293.5 223,222.8 152.3,293.5 223,364.2 		"/>
	</g>
	<g>
		<polygon class="st0" points="442.2,293.5 371.5,222.8 300.8,293.5 371.5,364.2 		"/>
	</g>
	<g>
		<polygon class="st0" points="368,219.2 297.2,148.5 226.5,219.2 297.2,290 		"/>
	</g>
	<g>
		<polygon class="st0" points="219.5,219.2 148.8,148.5 78,219.2 148.8,290 		"/>
	</g>
	<g>
		<path class="st0" d="M445.7,148.5c-23.6,23.6-47.1,47.1-70.7,70.7c23.6,23.6,47.1,47.1,70.7,70.7
			C445.7,242.8,445.7,195.7,445.7,148.5z"/>
	</g>
	<g>
		<polygon class="st0" points="442.2,145 371.5,74.3 300.8,145 371.5,215.7 		"/>
	</g>
	<g>
		<polygon class="st0" points="145.2,145 74.5,74.3 3.8,145 74.5,215.7 		"/>
	</g>
	<g>
		<polygon class="st0" points="145.2,293.5 74.5,222.8 3.8,293.5 74.5,364.2 		"/>
	</g>
	<g>
		<path class="st0" d="M0.3,141.5C23.8,117.9,47.4,94.3,71,70.8C47.4,47.2,23.8,23.6,0.3,0C0.3,47.2,0.3,94.3,0.3,141.5z"/>
	</g>
	<g>
		<path class="st0" d="M0.3,290c23.6-23.6,47.1-47.1,70.7-70.7c-23.6-23.6-47.1-47.1-70.7-70.7C0.3,195.7,0.3,242.8,0.3,290z"/>
	</g>
	<g>
		<path class="st0" d="M445.7,297c-23.6,23.6-47.1,47.1-70.7,70.7c23.6,23.6,47.1,47.1,70.7,70.7C445.7,391.3,445.7,344.2,445.7,297
			z"/>
	</g>
	<g>
		<path class="st0" d="M0.3,438.4c23.6-23.6,47.1-47.1,70.7-70.7C47.4,344.2,23.8,320.6,0.3,297C0.3,344.2,0.3,391.3,0.3,438.4z"/>
	</g>
</g>
</svg>
